<svg width="82" height="26" viewBox="0 0 82 26" fill="none" xmlns="http://www.w3.org/2000/svg">
<path d="M31.1777 20.2911V6.40228H34.3516V8.71709H34.4962C34.7494 7.91534 35.1834 7.29746 35.7983 6.86343C36.4192 6.42338 37.1275 6.20335 37.9232 6.20335C38.1041 6.20335 38.5264 6.18531 38.7495 6.20339C38.9785 6.21545 40.0226 6.28665 40.9098 6.40228L39.0987 9.30483C38.9601 9.2566 38.74 9.21441 38.4386 9.17824C38.1433 9.13604 37.8569 9.11494 37.5796 9.11494C36.9828 9.11494 36.4463 9.24455 35.9701 9.50376C35.4999 9.75694 35.1292 10.1096 34.8579 10.5617C34.5866 11.0138 34.451 11.5352 34.451 12.126V20.2911H31.1777Z" fill="#FFFFFF"/>
<path d="M26.3211 14.4499V6.40234H29.5944V20.2912H26.4205V17.8227H26.2759C25.9624 18.6003 25.447 19.2363 24.7297 19.7306C24.0183 20.2249 23.1412 20.472 22.0984 20.472C21.1881 20.472 20.3834 20.2701 19.6841 19.8662C18.9909 19.4563 18.4483 18.8625 18.0565 18.0849C17.6647 17.3012 17.4688 16.3548 17.4688 15.2456V6.40234H20.742V14.7393C20.742 15.6194 20.9832 16.3186 21.4654 16.8371C21.9477 17.3555 22.5806 17.6147 23.3643 17.6147C23.8465 17.6147 24.3137 17.4971 24.7658 17.262C25.2179 17.0269 25.5887 16.6773 25.878 16.2131C26.1734 15.743 26.3211 15.1552 26.3211 14.4499Z" fill="#FFFFFF"/>
<path d="M16.3212 8.02088H12.9394C12.843 7.4663 12.6651 6.975 12.4059 6.547C12.1467 6.11298 11.8242 5.74526 11.4384 5.44385C11.0526 5.14245 10.6125 4.91639 10.1182 4.76569C9.62996 4.60895 9.1025 4.53059 8.53585 4.53059C7.52915 4.53059 6.63699 4.78377 5.85935 5.29013C5.08172 5.79047 4.47288 6.5259 4.03283 7.49644C3.59277 8.46094 3.37275 9.63944 3.37275 11.0319C3.37275 12.4486 3.59277 13.6421 4.03283 14.6127C4.47891 15.5772 5.08775 16.3066 5.85935 16.8009C6.63699 17.2892 7.52614 17.5333 8.52681 17.5333C9.0814 17.5333 9.59982 17.461 10.0821 17.3163C10.5703 17.1656 11.0074 16.9455 11.3932 16.6562C11.785 16.3668 12.1136 16.0112 12.3788 15.5892C12.6501 15.1672 12.8369 14.685 12.9394 14.1425L16.3212 14.1605C16.1946 15.0407 15.9203 15.8665 15.4984 16.6381C15.0824 17.4097 14.5369 18.0909 13.8617 18.6817C13.1866 19.2664 12.3969 19.7245 11.4927 20.0561C10.5884 20.3816 9.58475 20.5444 8.4816 20.5444C6.854 20.5444 5.40122 20.1676 4.12325 19.4141C2.84528 18.6606 1.83858 17.5725 1.10315 16.1498C0.367717 14.7272 0 13.0212 0 11.0319C0 9.03663 0.370731 7.33066 1.11219 5.91405C1.85365 4.49141 2.86337 3.40333 4.14133 2.64981C5.4193 1.89629 6.86605 1.51953 8.4816 1.51953C9.51241 1.51953 10.4709 1.66421 11.357 1.95356C12.2432 2.24291 13.0328 2.66789 13.7261 3.22851C14.4193 3.7831 14.989 4.46428 15.4351 5.27205C15.8872 6.07379 16.1826 6.99007 16.3212 8.02088Z" fill="#FFFFFF"/>
<path d="M50.9269 6.40234L45.9809 20.2912H42.364L37.4179 6.40234H40.9082L44.1001 16.7195H44.2447L47.4457 6.40234H50.9269Z" fill="#FFFFFF"/>
<path d="M68.1467 25.5007V6.4035H71.3657V8.70022H71.5556C71.7244 8.36265 71.9625 8.00397 72.2699 7.6242C72.5774 7.2384 72.9933 6.90986 73.5177 6.6386C74.0422 6.3613 74.7113 6.22266 75.5251 6.22266C76.5981 6.22266 77.5656 6.49694 78.4277 7.0455C79.2957 7.58803 79.9829 8.39279 80.4893 9.45977C81.0017 10.5207 81.2579 11.8228 81.2579 13.366C81.2579 14.8911 81.0077 16.1872 80.5074 17.2542C80.007 18.3211 79.3259 19.1349 78.4638 19.6956C77.6018 20.2562 76.6253 20.5365 75.5342 20.5365C74.7384 20.5365 74.0784 20.4039 73.5539 20.1386C73.0295 19.8734 72.6075 19.5539 72.288 19.1801C71.9745 18.8004 71.7304 18.4417 71.5556 18.1041H71.42V25.5007H68.1467ZM71.3567 13.3479C71.3567 14.2461 71.4832 15.0328 71.7364 15.7079C71.9956 16.3831 72.3664 16.9106 72.8486 17.2903C73.3369 17.6641 73.9277 17.8509 74.6209 17.8509C75.3443 17.8509 75.9501 17.658 76.4384 17.2722C76.9267 16.8804 77.2944 16.3469 77.5415 15.6718C77.7947 14.9906 77.9213 14.216 77.9213 13.3479C77.9213 12.4859 77.7977 11.7203 77.5506 11.0512C77.3034 10.3821 76.9357 9.85763 76.4474 9.47785C75.9591 9.09808 75.3503 8.90819 74.6209 8.90819C73.9216 8.90819 73.3279 9.09205 72.8396 9.45977C72.3513 9.82749 71.9806 10.3429 71.7274 11.006C71.4802 11.6691 71.3567 12.4497 71.3567 13.3479Z" fill="#FFFFFF"/>
<path d="M63.0721 0.5H66.4268V13.8716C66.4268 15.1978 66.1133 16.3643 65.4864 17.371C64.8655 18.3777 63.9914 19.1643 62.8641 19.731C61.7369 20.2916 60.4197 20.5719 58.9127 20.5719C57.3996 20.5719 56.0795 20.2916 54.9522 19.731C53.8249 19.1643 52.9509 18.3777 52.33 17.371C51.7091 16.3643 51.3986 15.1978 51.3986 13.8716V4.31943H54.7533V13.5913C54.7533 14.3629 54.9221 15.0501 55.2596 15.6529C55.6033 16.2558 56.0855 16.729 56.7064 17.0726C57.3273 17.4101 58.0627 17.5789 58.9127 17.5789C59.7627 17.5789 60.4981 17.4101 61.119 17.0726C61.7459 16.729 62.2282 16.2558 62.5658 15.6529C62.9033 15.0501 63.0721 14.3629 63.0721 13.5913V0.5Z" fill="#FFFFFF"/>
</svg>
